Coordinates
version=1
nRows=15
nColumns=34
inDegrees=yes

Units are S.I. units (second, meters, Newtons, ...)
If the header above contains a line with 'inDegrees', this indicates whether rotational values are in degrees (yes) or radians (no).

endheader
time	pelvis_tilt	pelvis_list	pelvis_rotation	pelvis_tx	pelvis_ty	pelvis_tz	hip_flexion_r	hip_adduction_r	hip_rotation_r	knee_angle_r	ankle_angle_r	subtalar_angle_r	mtp_angle_r	hip_flexion_l	hip_adduction_l	hip_rotation_l	knee_angle_l	ankle_angle_l	subtalar_angle_l	mtp_angle_l	lumbar_extension	lumbar_bending	lumbar_rotation	arm_flex_r	arm_add_r	arm_rot_r	elbow_flex_r	pro_sup_r	arm_flex_l	arm_add_l	arm_rot_l	elbow_flex_l	pro_sup_l
     10.26666670	    -14.61376337	     -0.59803290	     -0.36631093	      0.59529778	      1.12770333	     -0.04770762	     19.82547507	     -6.00411032	    -24.84372138	      8.92544073	     -1.64459865	    -13.01046541	      0.00000000	     23.12362922	     -7.65668291	    -16.46442116	     14.59520138	      1.05565310	    -10.10149478	      0.00000000	     -5.74650738	     -0.63337845	     -1.88877844	     70.93189250	     -3.99092666	     28.41099660	     60.66712650	     70.98208249	   -103.33723559	   -177.31756843	   -144.49945479	     53.90042161	     27.31404668
     10.28333330	    -13.58353278	     -0.48754962	     -0.30578388	      0.61160828	      1.12831602	     -0.04804589	     17.68351314	     -5.79768583	    -24.96741736	      7.56863606	     -1.94051762	    -12.53351200	      0.00000000	     21.21666251	     -7.27814438	    -16.72097787	     13.30002012	      0.73664443	    -10.01414194	      0.00000000	     -5.77742289	     -0.84617902	     -2.45554985	     67.61266670	     -3.73343422	     27.43119362	     63.51495524	     71.03812948	   -104.66047737	   -176.62243965	   -144.37560319	     54.09752559	     27.41780498
     10.30000000	    -12.96855989	     -0.45248859	     -0.16514216	      0.61089051	      1.12842945	     -0.04794545	     16.42851643	     -5.67256658	    -24.95806476	      6.74965702	     -1.97177902	    -12.38963292	      0.00000000	     19.71051929	     -6.91112381	    -16.89603703	     11.78147424	      0.67631988	     -9.75464828	      0.00000000	     -5.51738377	     -0.88335623	     -2.87969422	     65.12986834	     -3.73147262	     26.97240852	     66.81475776	     71.26265719	   -105.73035307	   -176.21184924	   -144.00941841	     54.27285378	     27.59937744
     10.31666670	    -11.88708016	     -0.48414104	     -0.07081300	      0.62951766	      1.12929570	     -0.04084192	     14.17076296	     -5.21688742	    -24.68711858	      5.59058722	     -1.68734085	    -12.01423206	      0.00000000	     17.47592631	     -6.90665606	    -17.05994618	     10.63397775	      0.51173548	     -9.71714820	      0.00000000	     -5.47304086	     -1.24254052	     -2.91037137	     62.18843172	     -3.62619116	     25.98759065	     69.20562604	     71.52690623	   -107.31690584	   -176.02516772	   -143.77253337	     54.51998159	     27.82805495
     10.33333330	    -10.93652377	     -0.66680177	      0.30360618	      0.63779648	      1.13100641	     -0.04572799	     12.20109387	     -4.89735293	    -24.58816587	      4.94157581	     -1.49331439	    -11.99069826	      0.00000000	     15.50175610	     -6.84349467	    -16.83716780	      9.66420800	      0.98419015	     -9.18603967	      0.00000000	     -5.04604632	     -1.16199657	     -2.67912592	     59.54777511	     -3.97387168	     25.27215748	     71.63636023	     71.89545722	   -109.21894656	   -176.32768893	   -143.05965515	     55.50905976	     28.22445190
     10.35000000	     -9.75124985	     -0.59066289	      0.38112154	      0.65477835	      1.13526686	     -0.04662189	      9.68022688	     -4.71066564	    -24.47299300	      3.88587014	     -1.50035713	    -11.86984128	      0.00000000	     12.99968717	     -6.63675538	    -17.04776753	      8.60210860	      1.46991532	     -8.48975699	      0.00000000	     -4.63860331	     -1.40040953	     -2.60995942	     55.78747227	     -4.12469476	     24.36578042	     73.26268935	     72.27656343	   -112.01650298	   -176.56223313	   -142.52508168	     56.64426343	     28.69721784
     10.36666670	     -8.55671102	     -0.81586031	      1.55446074	      0.67287791	      1.13774982	     -0.04811524	      6.61761659	     -4.24103300	    -24.72215005	      2.65528123	     -1.12851900	    -11.67218776	      0.00000000	     10.69455478	     -6.56568402	    -16.31299230	      7.69203925	      2.20180592	     -7.66701938	      0.00000000	     -4.04421499	     -1.27542610	     -3.16280373	     52.02069687	     -4.87206380	     23.56484692	     74.56513419	     72.71860293	   -114.96094353	   -177.09571902	   -141.57845360	     57.69792430	     29.30305346
     10.38333330	     -7.20404221	     -0.77808157	      2.32135584	      0.69760551	      1.13935524	     -0.05354368	      3.30575129	     -4.07812959	    -24.77685900	      1.63283464	     -0.57905363	    -11.22877002	      0.00000000	      7.81626579	     -6.29668548	    -16.19673742	      6.58281634	      3.26708395	     -6.30998205	      0.00000000	     -2.99036088	     -1.39971242	     -3.04458357	     48.01596187	     -5.97198203	     22.53734902	     74.68591769	     73.15520085	   -118.94183959	   -177.71727847	   -140.81318067	     59.32169817	     29.98148657
     10.40000000	     -6.04428442	     -0.77024296	      2.81273105	      0.70531750	      1.13996336	     -0.05826608	      0.52338854	     -3.94719792	    -24.57819851	      0.82920515	     -0.11896184	    -11.19357702	      0.00000000	      5.20050696	     -6.03285877	    -16.18051290	      5.47410302	      4.26722674	     -5.23401391	      0.00000000	     -1.77185243	     -1.41957389	     -3.20782884	     44.29593691	     -6.89524743	     22.16654707	     75.43472997	     73.71606342	   -122.96497883	   -177.88668904	   -140.80735356	     60.37506655	     30.60555101
     10.41666670	     -5.03409330	     -0.68389039	      3.08327316	      0.70439536	      1.13463244	     -0.05841294	     -1.64643775	     -3.90678535	    -23.97898392	      0.20651413	      0.21296648	    -11.98936694	      0.00000000	      3.15601380	     -5.74012347	    -15.86668584	      4.77370962	      5.10717516	     -5.07288346	      0.00000000	     -0.77862601	     -1.69630048	     -3.31300668	     41.48500026	     -7.15534189	     21.33247533	     75.11246984	     74.16280128	   -126.42494428	   -178.02024805	   -141.60403227	     61.17194947	     31.14147242
     10.43333330	     -4.47001184	     -0.47435341	      3.17752731	      0.70407513	      1.13437619	     -0.05837867	     -2.74086390	     -4.11090984	    -23.21922073	      0.00000000	      0.93648607	    -12.48550724	      0.00000000	      1.76660871	     -5.33077978	    -15.57937497	      3.85816306	      5.59136603	     -4.79983814	      0.00000000	      0.12186303	     -2.19321794	     -4.06911079	     38.27041556	     -6.93212267	     20.14856936	     76.08090683	     74.53947291	   -129.44536348	   -177.43843018	   -142.83763005	     62.18373846	     31.59932629
     10.45000000	     -3.80256297	     -0.42081497	      3.32583518	      0.70252598	      1.13347742	     -0.05830906	     -3.58996351	     -4.13502359	    -22.15508367	      0.00000000	      1.71838484	    -13.35352263	      0.00000000	      0.45910459	     -5.10846808	    -15.18308425	      2.92213803	      6.10183951	     -4.51554836	      0.00000000	      0.32861145	     -2.53970819	     -4.75802665	     36.40761818	     -6.38121417	     19.35599847	     75.77511731	     74.87412893	   -130.94869119	   -177.17830450	   -143.63200776	     62.38813024	     31.95284150
     10.46666670	     -3.21852420	     -0.38473854	      3.72596949	      0.70184119	      1.13938039	     -0.05921071	     -4.25066609	     -4.11828335	    -21.34611434	      0.00000000	      2.36968518	    -13.88415648	      0.00000000	     -0.57768806	     -4.93735819	    -14.59445005	      1.96874471	      6.16471662	     -4.05521918	      0.00000000	     -0.12311809	     -2.71252096	     -5.12757619	     35.18222551	     -5.83548404	     19.16189145	     74.71532249	     75.10609752	   -131.21001069	   -177.24772302	   -143.63835302	     61.98322959	     32.13111254
     10.48333330	     -2.39805705	     -0.38753094	      3.85722946	      0.70849765	      1.14170457	     -0.06351227	     -5.14833688	     -4.11769108	    -20.67818162	      0.00000000	      2.66280669	    -14.22781841	      0.00000000	     -1.83503480	     -4.86006475	    -14.55356645	      1.32836914	      6.22519235	     -3.55742011	      0.00000000	     -0.54957479	     -2.69269203	     -5.55684687	     33.65520169	     -5.70657867	     18.85991257	     73.56707496	     75.45420465	   -132.09583919	   -177.22438695	   -143.82660921	     61.04736821	     32.30362263
     10.50000000	     -1.64802116	     -0.53536725	      4.02460744	      0.70810305	      1.14145934	     -0.06391205	     -5.91218976	     -3.94219239	    -20.14133682	      0.00000000	      2.89798323	    -14.46409131	      0.00000000	     -2.92949598	     -4.96742568	    -14.53070791	      0.83633235	      6.26915501	     -3.00997120	      0.00000000	     -1.19776093	     -2.46794212	     -5.97108653	     33.23235200	     -5.49354739	     19.28835084	     73.00725198	     75.87745232	   -132.31322786	   -177.16170849	   -143.52888450	     59.81755270	     32.47682005
